# xmcd
#
# Track frame offsets:
# 150
# 17374
# 34022
# 53424
# 72344
# 90800
# 109262
# 134385
# 153435
# 171795
# 189701
# 210816
# 232673
#
# Disc length: 3340 seconds
#
#
# Revision: 0
# Processed by: cddbd v1.5.1PL0 Copyright (c) Steve Scherf et al.
# Submitted via: FreeRIP 2.12 
#
DISCID=920d0a0d
DTITLE=Giorgia - Senza Ali
DYEAR=2001
DGENRE=Blues
TTITLE0=Senza Ali
TTITLE1=Save The World
TTITLE2=Di Sole E D'Azzurro
TTITLE3=Interstellare
TTITLE4=Un Posto Migliore
TTITLE5=Un Sole Dentro Al Cuore
TTITLE6=Prima Di Domani
TTITLE7=Canzone Degli Innamorati
TTITLE8=Qualcosa Cambierà
TTITLE9=Ho Bisogno Di Un Sogno
TTITLE10=Il Tempo
TTITLE11=Il Mare Sconosciuto
TTITLE12=Girasole [acoustica]
EXTD=
EXTT0=
EXTT1=
EXTT2=
EXTT3=
EXTT4=
EXTT5=
EXTT6=
EXTT7=
EXTT8=
EXTT9=
EXTT10=
EXTT11=
EXTT12=
PLAYORDER=
